<svg width="707" height="600" viewBox="0 0 707 600" fill="none" xmlns="http://www.w3.org/2000/svg">
<g clip-path="url(#clip0_5_426)">
<path d="M461.42 261.986C460.606 267.508 459.628 272.975 458.489 278.385C458.365 279.013 458.227 279.632 458.089 280.26H442.24C440.89 280.262 439.596 280.954 438.641 282.185C437.687 283.415 437.15 285.084 437.148 286.824V345.071C436.668 346.224 436.181 347.368 435.693 348.512C433.177 354.419 430.558 360.261 427.881 366.027C384.235 459.751 323.36 538.181 250.63 594.393L254.937 581.866C253.358 581.725 251.772 581.584 250.194 581.444C215.826 578.415 181.342 575.058 147.781 565.101C112.671 554.683 78.3255 536.615 50.8093 506.657C23.2856 476.689 3.10873 433.895 0.308306 387.594C-0.625485 371.681 0.62292 355.681 3.99626 340.326C10.4477 310.772 24.5443 284.18 44.8813 268.446C76.8271 243.739 118.498 248.774 152.174 269.327C185.844 289.871 213.251 323.88 240.011 357.298C212.993 297.572 175.376 246.955 130.245 209.599C115.29 197.259 99.419 186.27 86.7047 170.283C73.9975 154.305 64.6217 131.905 66.8695 109.204C69.4224 83.4564 85.781 63.9157 102.168 48.8477C108.715 42.8279 115.472 37.1176 122.44 31.8668C142.1 17.0143 163.369 5.80939 185.83 1.65559C216.255 -3.9797 249.118 4.57169 272.444 30.3759C298.724 59.4525 309.503 106.345 308.478 151.202C324.669 120.859 349.639 97.6337 377.839 96.6492C407.115 95.6365 434.944 119.481 449.608 152.168C464.264 184.845 466.897 224.901 461.42 261.986Z" fill="#2E5266"/>
<path d="M276.192 388.002C293.339 386.055 309.179 383.78 325.795 377.719C341.901 371.844 357.4 362.009 368.865 345.95C381.198 328.677 387.855 306.244 392.552 283.914C395.17 271.463 397.322 258.839 399.352 246.21C401.555 232.508 403.513 218.746 405.224 204.922C408.632 177.407 411.064 149.729 412.522 121.89C412.698 118.51 412.86 115.13 413.006 111.748C413.097 109.662 410.58 109.669 410.49 111.748C409.292 139.19 407.138 166.525 404.027 193.753C400.957 220.504 397.029 247.14 392.046 273.411C387.824 295.668 382.358 318.272 371.53 336.799C361.376 354.173 346.711 365.527 330.876 372.315C314.763 379.223 297.773 381.98 280.936 384.031C278.87 384.283 278.258 384.523 276.192 384.757C274.591 384.939 274.576 388.185 276.192 388.002Z" fill="#6E8898"/>
<path d="M5.44896 342.72C27.0834 344.267 48.4978 349.131 69.2393 357.211C89.9897 365.273 109.93 376.462 128.648 390.546C146.733 404.165 163.523 420.461 178.676 439.103C193.381 457.206 206.487 477.351 217.755 499.171C229.074 521.046 238.454 544.487 245.719 569.057C246.605 572.064 247.459 575.087 248.28 578.125C248.81 580.083 251.242 579.241 250.706 577.262C243.909 552.174 234.948 528.148 223.991 505.637C213.037 483.125 200.181 462.247 185.659 443.385C170.904 424.231 154.483 407.338 136.722 393.041C99.429 363.094 57.158 344.978 13.3797 340.18C10.7389 339.895 8.09536 339.66 5.44899 339.476C3.8306 339.361 3.83554 342.606 5.44896 342.72Z" fill="#6E8898"/>
<path d="M123.12 35.6698C136.953 41.341 150.064 49.6006 162.035 60.184C174.267 71.0723 185.423 83.8437 195.255 98.2154C205.617 113.334 214.828 129.699 222.764 147.087C231.181 165.446 238.493 184.61 244.636 204.411C250.961 224.739 256.281 245.564 260.564 266.76C264.917 288.207 268.318 309.957 270.749 331.903C273.168 353.617 274.631 375.49 275.133 397.417C275.639 418.384 275.158 439.371 273.693 460.262C272.354 479.753 269.907 499.092 266.374 518.121C263.236 535.309 258.813 552.063 253.169 568.151C251.861 571.802 250.473 575.403 249.006 578.954C248.245 580.796 250.417 582.436 251.179 580.591C257.417 565.225 262.399 549.063 266.042 532.368C270.13 513.783 273.094 494.817 274.906 475.641C276.914 454.836 277.892 433.887 277.834 412.922C277.798 390.896 276.781 368.891 274.788 347.016C272.794 324.868 269.834 302.882 265.921 281.163C262.018 259.408 257.067 237.989 251.097 217.028C245.343 196.737 238.453 177.012 230.482 158.007C222.891 139.872 214.044 122.659 204.049 106.576C194.557 91.2632 183.721 77.4198 171.757 65.3229C160.22 53.6934 147.472 44.2138 133.886 37.1628C130.567 35.4594 127.201 33.9189 123.789 32.5414C122.241 31.9133 121.578 35.0444 123.12 35.6698Z" fill="#6E8898"/>
<path d="M272.401 600C371.824 600 452.423 595.802 452.423 590.623C452.423 585.445 371.824 581.247 272.401 581.247C172.977 581.247 92.3782 585.445 92.3782 590.623C92.3782 595.802 172.977 600 272.401 600Z" fill="#6E8898"/>
<path d="M431.452 296.941C431.363 297.447 431.305 297.961 431.278 298.479L400.032 321.715L392.438 316.079L384.341 329.743L400.589 344.671L436.235 308.419C437.689 309.112 439.272 309.219 440.774 308.724C442.276 308.23 443.626 307.157 444.643 305.65C445.661 304.142 446.299 302.271 446.471 300.285C446.644 298.299 446.343 296.292 445.61 294.532C444.876 292.771 443.744 291.341 442.364 290.43C440.985 289.519 439.422 289.171 437.886 289.432C436.349 289.694 434.91 290.552 433.761 291.893C432.611 293.235 431.806 294.995 431.452 296.941Z" fill="#FFB8B8"/>
<path d="M360.292 311.197L384.895 333.801L395.898 316.017L371.982 291.279C370.953 290.215 369.767 289.432 368.495 288.98C367.223 288.528 365.894 288.415 364.587 288.648C363.28 288.881 362.024 289.456 360.896 290.337C359.768 291.219 358.791 292.387 358.025 293.772C356.533 296.47 355.934 299.822 356.359 303.09C356.784 306.358 358.199 309.274 360.292 311.197Z" fill="#E2C044"/>
<path d="M309.507 569.115L318.133 572.028L330.957 530.524L318.226 526.223L309.507 569.115Z" fill="#FFB8B8"/>
<path d="M332.67 587.974L305.56 578.816L308.304 565.313L324.94 570.933C327.718 571.871 330.094 574.194 331.543 577.389C332.993 580.585 333.398 584.393 332.67 587.974Z" fill="#2F2E41"/>
<path d="M386.188 577.032L394.966 575.011L393.095 530.4L380.14 533.384L386.188 577.032Z" fill="#FFB8B8"/>
<path d="M413.352 581.621L385.763 587.974L383.859 574.232L400.789 570.334C402.188 570.012 403.624 570.048 405.013 570.441C406.402 570.833 407.717 571.575 408.884 572.623C410.05 573.671 411.045 575.005 411.812 576.549C412.579 578.093 413.102 579.816 413.352 581.621Z" fill="#2F2E41"/>
<path d="M368.902 248.955C371.065 249.633 372.825 252.475 373.882 255.767C374.857 259.224 375.517 262.816 375.849 266.469C376.679 273.274 377.477 280.64 375.759 286.942C373.746 294.328 368.382 298.197 363.729 296.379C359.077 294.561 355.376 287.737 354.112 279.882C352.961 271.945 353.702 263.744 356.239 256.361C357.561 252.482 359.382 248.903 361.803 247.153C362.991 246.227 364.407 245.916 365.765 246.281C367.124 246.646 368.325 247.66 369.127 249.12" fill="#2F2E41"/>
<path d="M381.141 372.15L397.854 565.114L384.051 571.87L358.593 442.474L323.15 560.786L308.042 561.868C308.042 561.868 328.771 377.776 344.134 373.592L381.141 372.15Z" fill="#2F2E41"/>
<path d="M367.104 273.581C376.97 273.581 384.968 263.27 384.968 250.551C384.968 237.832 376.97 227.521 367.104 227.521C357.237 227.521 349.239 237.832 349.239 250.551C349.239 263.27 357.237 273.581 367.104 273.581Z" fill="#FFB8B8"/>
<path d="M374.771 283.242L355.466 279.996C355.466 279.996 342.875 299.473 343.715 333.016C344.554 366.559 341.616 376.839 341.616 376.839L381.869 377.776C376.05 367.462 400.389 308.224 374.771 283.242Z" fill="#E2C044"/>
<path d="M385.142 382.464C384.739 382.468 384.338 382.513 383.941 382.598L359.243 348.706L361.761 337.885L349.59 330.852L342.036 354.657L377.569 391.093C377.378 393.077 377.66 395.088 378.377 396.859C379.094 398.631 380.213 400.079 381.584 401.011C382.955 401.943 384.514 402.315 386.053 402.077C387.593 401.839 389.039 401.003 390.201 399.68C391.362 398.356 392.184 396.608 392.556 394.668C392.928 392.728 392.833 390.688 392.284 388.82C391.735 386.951 390.757 385.342 389.482 384.206C388.206 383.071 386.692 382.464 385.142 382.464Z" fill="#FFB8B8"/>
<path d="M358.091 296.428L346.652 332.475L362.6 342.213L375.808 306.54C376.376 305.005 376.695 303.337 376.746 301.638C376.796 299.939 376.577 298.244 376.102 296.657C375.627 295.071 374.905 293.626 373.982 292.412C373.058 291.198 371.952 290.239 370.731 289.596C369.553 288.974 368.292 288.658 367.019 288.665C365.746 288.673 364.487 289.003 363.313 289.637C362.14 290.272 361.075 291.198 360.179 292.363C359.283 293.529 358.573 294.91 358.091 296.428Z" fill="#E2C044"/>
<path d="M362.431 271.488C365.23 269.406 365.529 264.384 365.148 260.248C364.768 256.111 364.132 251.499 366.019 248.116C368.27 244.079 372.793 243.999 376.649 243.867C380.504 243.735 385.2 242.28 386.199 237.477C386.859 234.304 385.446 230.899 383.42 228.907C381.393 226.915 378.857 226.035 376.393 225.198C370.88 223.326 365.188 221.438 359.543 222.467C353.952 223.486 348.897 227.302 345.471 233.089C342.046 238.876 340.526 246.17 341.24 253.39C342.154 262.627 343.479 266.661 342.609 270.733C340.989 278.319 334.004 283.192 333.865 291.059C333.756 297.211 337.972 301.958 342.085 305.082C345.348 307.56 348.869 309.663 352.629 310.243C356.389 310.823 360.437 309.713 363.238 306.427C366.851 302.19 367.745 295.111 366.709 288.958C365.673 282.805 363.015 277.341 360.387 272.034" fill="#2F2E41"/>
<path d="M700.454 278.385H442.24C440.504 278.388 438.841 279.279 437.614 280.86C436.387 282.442 435.696 284.587 435.693 286.824V500.609C435.696 502.846 436.387 504.99 437.614 506.572C438.841 508.154 440.504 509.044 442.24 509.048H700.454C702.189 509.044 703.852 508.154 705.08 506.572C706.307 504.99 706.997 502.846 707 500.609V286.824C706.997 284.587 706.307 282.442 705.08 280.86C703.852 279.279 702.189 278.388 700.454 278.385ZM705.545 500.609C705.544 502.349 705.007 504.017 704.052 505.248C703.098 506.478 701.803 507.17 700.454 507.172H442.24C440.89 507.17 439.596 506.478 438.641 505.248C437.687 504.017 437.15 502.349 437.148 500.609V286.824C437.15 285.084 437.687 283.415 438.641 282.185C439.596 280.954 440.89 280.262 442.24 280.26H700.454C701.803 280.262 703.098 280.954 704.052 282.185C705.007 283.415 705.544 285.084 705.545 286.824V500.609Z" fill="#3F3D56"/>
<path d="M497.356 384.804H456.624C454.984 384.802 453.413 383.961 452.254 382.467C451.095 380.973 450.443 378.947 450.441 376.834V324.326C450.443 322.213 451.095 320.187 452.254 318.693C453.413 317.199 454.984 316.358 456.624 316.356H497.356C498.995 316.358 500.566 317.199 501.725 318.693C502.884 320.187 503.536 322.213 503.538 324.326V376.834C503.536 378.947 502.884 380.973 501.725 382.467C500.566 383.961 498.995 384.802 497.356 384.804Z" fill="#E2C044"/>
<path d="M687.005 440.604H455.704C454.45 440.604 453.247 439.961 452.361 438.818C451.474 437.675 450.976 436.125 450.976 434.509C450.976 432.892 451.474 431.342 452.361 430.199C453.247 429.056 454.45 428.414 455.704 428.414H687.005C688.259 428.414 689.462 429.056 690.349 430.199C691.235 431.342 691.733 432.892 691.733 434.509C691.733 436.125 691.235 437.675 690.349 438.818C689.462 439.961 688.259 440.604 687.005 440.604Z" fill="#6E8898"/>
<path d="M687.161 411.067H455.859C454.605 411.067 453.403 410.425 452.516 409.282C451.629 408.139 451.131 406.589 451.131 404.973C451.131 403.356 451.629 401.806 452.516 400.663C453.403 399.52 454.605 398.878 455.859 398.878H687.161C688.415 398.878 689.617 399.52 690.504 400.663C691.39 401.806 691.889 403.356 691.889 404.973C691.889 406.589 691.39 408.139 690.504 409.282C689.617 410.425 688.415 411.067 687.161 411.067Z" fill="#6E8898"/>
<path d="M572.965 370.739H538.779C537.525 370.739 536.322 370.097 535.436 368.954C534.549 367.811 534.051 366.261 534.051 364.645C534.051 363.028 534.549 361.478 535.436 360.335C536.322 359.192 537.525 358.55 538.779 358.55H572.965C574.219 358.55 575.421 359.192 576.308 360.335C577.194 361.478 577.693 363.028 577.693 364.645C577.693 366.261 577.194 367.811 576.308 368.954C575.421 370.097 574.219 370.739 572.965 370.739Z" fill="#6E8898"/>
<path d="M687.161 340.744H538.779C537.525 340.744 536.322 340.101 535.436 338.958C534.549 337.815 534.051 336.265 534.051 334.649C534.051 333.032 534.549 331.482 535.436 330.339C536.322 329.196 537.525 328.554 538.779 328.554H687.161C688.415 328.554 689.617 329.196 690.504 330.339C691.39 331.482 691.889 333.032 691.889 334.649C691.889 336.265 691.39 337.815 690.504 338.958C689.617 340.101 688.415 340.744 687.161 340.744Z" fill="#6E8898"/>
<path d="M567.146 470.608H455.704C454.45 470.608 453.247 469.966 452.361 468.823C451.474 467.68 450.976 466.13 450.976 464.514C450.976 462.897 451.474 461.347 452.361 460.204C453.247 459.061 454.45 458.419 455.704 458.419H567.146C568.4 458.419 569.602 459.061 570.489 460.204C571.376 461.347 571.874 462.897 571.874 464.514C571.874 466.13 571.376 467.68 570.489 468.823C569.602 469.966 568.4 470.608 567.146 470.608Z" fill="#6E8898"/>
</g>
<defs>
<clipPath id="clip0_5_426">
<rect width="707" height="600" fill="white"/>
</clipPath>
</defs>
</svg>
