<svg width="416" height="320" viewBox="0 0 416 320" fill="none" xmlns="http://www.w3.org/2000/svg">
<g clip-path="url(#clip0_1_351)">
<path d="M46.8535 33.6296C48.0636 33.6296 49.0446 32.5427 49.0446 31.2021C49.0446 29.8614 48.0636 28.7745 46.8535 28.7745C45.6435 28.7745 44.6625 29.8614 44.6625 31.2021C44.6625 32.5427 45.6435 33.6296 46.8535 33.6296Z" fill="white"/>
<path d="M55.1692 33.6296C56.3792 33.6296 57.3602 32.5427 57.3602 31.2021C57.3602 29.8614 56.3792 28.7745 55.1692 28.7745C53.9591 28.7745 52.9782 29.8614 52.9782 31.2021C52.9782 32.5427 53.9591 33.6296 55.1692 33.6296Z" fill="white"/>
<path d="M63.4849 33.6296C64.6949 33.6296 65.6759 32.5427 65.6759 31.2021C65.6759 29.8614 64.6949 28.7745 63.4849 28.7745C62.2748 28.7745 61.2939 29.8614 61.2939 31.2021C61.2939 32.5427 62.2748 33.6296 63.4849 33.6296Z" fill="white"/>
<path d="M319.758 36.9052H41.53V38.6185H319.758V36.9052Z" fill="white"/>
<path d="M319.997 0.200684H0.136368V227.167H319.997V0.200684Z" fill="#2F2E41"/>
<path d="M319.86 0H0V15.0558H319.86V0Z" fill="#E2C044"/>
<path d="M311.115 27.1996H9.54703V113.721H311.115V27.1996Z" fill="#3F3D56"/>
<path d="M311.306 127.939H9.73775V214.461H311.306V127.939Z" fill="#3F3D56"/>
<path d="M274.591 46.3398H111.382V54.3991H274.591V46.3398Z" fill="#E6E6E6"/>
<path d="M169.574 66.4877H111.382V74.5469H169.574V66.4877Z" fill="#E6E6E6"/>
<path d="M227.311 86.6354H111.382V94.6946H227.311V86.6354Z" fill="#E6E6E6"/>
<path d="M99.1071 170.757C99.1157 176.624 97.5741 182.367 94.6722 187.275C94.0641 188.31 93.3977 189.302 92.677 190.244C90.9868 192.462 89.0182 194.4 86.8311 195.999C86.2363 196.436 85.6249 196.844 84.9969 197.225C81.7281 199.229 78.1202 200.46 74.4006 200.841C73.5552 200.933 72.6957 200.976 71.8287 200.976C69.4522 200.979 67.0857 200.636 64.7897 199.956C63.4883 199.577 62.2152 199.088 60.9819 198.492C60.3515 198.19 59.7354 197.862 59.1335 197.508C57.6858 196.665 56.3105 195.678 55.0248 194.559C54.4266 194.043 53.8499 193.499 53.2947 192.927C49.9726 189.517 47.4694 185.243 46.0111 180.493C44.5527 175.742 44.185 170.664 44.9413 165.716C45.6975 160.769 47.5539 156.108 50.3428 152.154C53.1317 148.2 56.7653 145.078 60.9158 143.07C65.0662 141.061 69.6027 140.229 74.1158 140.649C78.629 141.069 82.9767 142.728 86.7665 145.476C90.5563 148.223 93.6689 151.973 95.8234 156.387C97.9779 160.801 99.1064 165.739 99.1071 170.757V170.757Z" fill="#E2C044"/>
<path d="M73.5024 156.649H70.1585V184.856H73.5024V156.649Z" fill="white"/>
<path d="M84.5596 168.901H59.1008V172.606H84.5596V168.901Z" fill="white"/>
<path d="M270.499 147.079H107.29V155.138H270.499V147.079Z" fill="white"/>
<path d="M165.482 167.227H107.29V175.286H165.482V167.227Z" fill="white"/>
<path d="M223.219 187.375H107.29V195.434H223.219V187.375Z" fill="white"/>
<path d="M21.1547 9.97995C22.3962 9.97995 23.4026 8.86491 23.4026 7.48943C23.4026 6.11395 22.3962 4.9989 21.1547 4.9989C19.9133 4.9989 18.9069 6.11395 18.9069 7.48943C18.9069 8.86491 19.9133 9.97995 21.1547 9.97995Z" fill="white"/>
<path d="M29.6873 9.97995C30.9288 9.97995 31.9352 8.86491 31.9352 7.48943C31.9352 6.11395 30.9288 4.9989 29.6873 4.9989C28.4458 4.9989 27.4394 6.11395 27.4394 7.48943C27.4394 8.86491 28.4458 9.97995 29.6873 9.97995Z" fill="white"/>
<path d="M12.6001 9.97995C13.8415 9.97995 14.8479 8.86491 14.8479 7.48943C14.8479 6.11395 13.8415 4.9989 12.6001 4.9989C11.3586 4.9989 10.3522 6.11395 10.3522 7.48943C10.3522 8.86491 11.3586 9.97995 12.6001 9.97995Z" fill="white"/>
<path d="M88.1829 94.7654C85.7988 93.3735 83.3102 92.2132 80.7452 91.2976L80.4181 87.2889L67.1534 85.7054L65.4676 90.8292L60.7071 92.8085C60.5368 92.8801 60.3746 92.9736 60.2241 93.0873H60.2189C59.9532 93.2862 59.727 93.5431 59.5539 93.8421C59.3809 94.1412 59.2647 94.4763 59.2125 94.8268C59.1616 95.1753 59.1736 95.5316 59.2478 95.875L59.4994 97.0179C59.8616 97.2577 60.2341 97.4862 60.6064 97.7037L60.843 97.8375C61.3865 98.1497 61.9401 98.4452 62.5087 98.7184C62.6244 98.7742 62.7502 98.8299 62.866 98.8857C62.876 98.8912 62.8809 98.8912 62.891 98.8968C63.1579 99.0195 63.4245 99.1366 63.6962 99.2481C64.5889 99.6258 65.4993 99.9496 66.4236 100.218C68.7826 100.915 71.2136 101.267 73.6549 101.266C74.5456 101.266 75.4262 101.222 76.2968 101.127C78.286 100.924 80.2497 100.484 82.1543 99.8168C82.1592 99.8168 82.1644 99.8112 82.1693 99.8112C83.3724 99.3865 84.5478 98.8705 85.6869 98.2668C85.6918 98.2612 85.7019 98.2612 85.707 98.2556C85.9636 98.1218 86.2103 97.9769 86.4619 97.8375L86.5825 97.7706C86.7837 97.6535 86.9852 97.5364 87.1865 97.4138C87.6897 97.1071 88.1828 96.7837 88.6708 96.4381C88.8067 96.3489 88.9376 96.2541 89.0735 96.1537C89.2647 96.0143 89.4558 95.8694 89.6421 95.7189C89.174 95.3843 88.6861 95.0665 88.1829 94.7654Z" fill="#E2C044"/>
<path d="M63.2886 97.2355L62.4583 93.0818H60.2895C60.2676 93.0821 60.2457 93.084 60.2241 93.0874H60.2189C59.4395 93.1604 58.6889 93.4479 58.0351 93.9237C57.5916 94.2373 57.1973 94.629 56.8677 95.0833C57.5117 95.6242 58.181 96.126 58.8705 96.6054L58.9007 96.6222C59.0968 96.756 59.2982 96.8898 59.4995 97.018C59.8617 97.2578 60.2342 97.4863 60.6064 97.7038L60.843 97.8376C61.3866 98.1498 61.9401 98.4453 62.5087 98.7185C62.6245 98.7743 62.7503 98.83 62.866 98.8858C62.8761 98.8913 62.881 98.8913 62.8911 98.8969C63.1579 99.0196 63.4245 99.1367 63.6963 99.2482L63.2886 97.2355Z" fill="#E2C044"/>
<path d="M73.2652 83.1711C78.5414 83.1711 82.8185 78.4322 82.8185 72.5865C82.8185 66.7407 78.5414 62.0018 73.2652 62.0018C67.989 62.0018 63.7118 66.7407 63.7118 72.5865C63.7118 78.4322 67.989 83.1711 73.2652 83.1711Z" fill="#FFB8B8"/>
<path d="M66.8511 67.4309C67.8401 68.7276 69.5137 69.0935 71.0576 69.2435C74.6671 69.4644 78.2869 69.1369 81.8163 68.2702C82.035 70.6186 81.4387 73.1508 82.6872 75.0826C83.2724 72.7438 83.6127 70.3382 83.7014 67.9132C83.7946 66.8727 83.672 65.8225 83.3429 64.8425C83.167 64.3514 82.8702 63.9249 82.4864 63.6114C82.1025 63.2978 81.647 63.1099 81.1715 63.0689C81.8832 62.4707 82.717 62.0757 83.599 61.919L80.5657 60.2301L81.3446 59.344L75.8528 58.9717L77.4435 57.8521C75.0494 57.4876 72.6275 57.4029 70.2174 57.5993C69.0983 57.6907 67.9283 57.8652 67.0215 58.5836C66.1148 59.302 65.5908 60.7299 66.1537 61.7847C65.449 61.9129 64.7854 62.2383 64.226 62.7301C63.6665 63.222 63.2296 63.8639 62.9568 64.5952C62.6117 65.7575 62.5283 66.9956 62.7141 68.2018C62.921 70.1369 63.3269 72.0395 63.9239 73.8725L66.8511 67.4309Z" fill="#2F2E41"/>
<path d="M100.129 61.1125C98.7887 56.8461 96.6245 52.955 93.7873 49.7106C90.9502 46.4661 87.5084 43.9464 83.702 42.3271C79.8956 40.7079 75.8163 40.028 71.7484 40.335C67.6805 40.642 63.722 41.9284 60.1489 44.1045C56.5759 46.2807 53.4743 49.2942 51.0604 52.9349C48.6465 56.5756 46.9785 60.7559 46.1726 65.1842C45.3667 69.6126 45.4424 74.1824 46.3943 78.575C47.3463 82.9676 49.1516 87.0773 51.6844 90.6174C51.936 90.9687 52.1977 91.3199 52.4645 91.66C52.4846 91.6823 52.4996 91.7046 52.5198 91.7269C53.1757 92.5643 53.8729 93.361 54.6081 94.1132C54.7995 94.3083 55.0007 94.509 55.202 94.6986C55.5843 95.0777 55.9769 95.4401 56.3846 95.7858C56.5455 95.9252 56.7015 96.0646 56.8677 96.1984C57.5117 96.7392 58.181 97.241 58.8705 97.7205L58.9007 97.7372C59.0968 97.871 59.2982 98.0048 59.4995 98.133C59.8617 98.3728 60.2342 98.6014 60.6064 98.8188L60.843 98.9526C61.3866 99.2648 61.9401 99.5603 62.5087 99.8335C62.6245 99.8893 62.7503 99.945 62.866 100.001C62.8761 100.006 62.881 100.006 62.8911 100.012C63.1579 100.135 63.4245 100.252 63.6963 100.363C64.5889 100.741 65.4994 101.065 66.4237 101.333C68.7826 102.03 71.2136 102.382 73.655 102.381C74.5457 102.381 75.4263 102.337 76.2968 102.242C78.286 102.039 80.2498 101.599 82.1544 100.932C82.1593 100.932 82.1644 100.926 82.1693 100.926C83.3725 100.502 84.5478 99.9856 85.687 99.3819C85.6919 99.3763 85.702 99.3764 85.7071 99.3708C85.9636 99.237 86.2103 99.092 86.4619 98.9526L86.5826 98.8857C86.7838 98.7686 86.9853 98.6515 87.1865 98.5289C87.6897 98.2222 88.1829 97.8989 88.6709 97.5532C88.8067 97.464 88.9377 97.3692 89.0736 97.2689C89.2647 97.1295 89.4559 96.9845 89.6421 96.834C89.8886 96.6444 90.1353 96.4493 90.3769 96.2486C90.4523 96.1872 90.5328 96.1259 90.6083 96.059C95.3228 92.0943 98.7833 86.5776 100.494 80.2997C102.204 74.0218 102.076 67.3051 100.129 61.1125ZM89.6824 94.7042C89.5163 94.8491 89.3453 94.9885 89.174 95.1168C89.0079 95.2561 88.8421 95.3899 88.6708 95.5126C88.5249 95.6297 88.3789 95.7412 88.228 95.8471L88.1828 95.8806C88.072 95.9642 87.9614 96.0423 87.8506 96.1203C87.4329 96.4102 87.0102 96.689 86.5825 96.9566C86.5373 96.9845 86.4918 97.0124 86.4466 97.0403C86.2555 97.1574 86.0643 97.2689 85.8732 97.3804C85.8479 97.3971 85.8176 97.4083 85.7926 97.425L85.7623 97.4417C85.5208 97.5811 85.2741 97.7149 85.0276 97.8431C84.0761 98.3508 83.0962 98.7903 82.0939 99.1589C81.9629 99.2091 81.8322 99.2593 81.7015 99.3039C79.8987 99.9392 78.0395 100.358 76.156 100.553C75.3307 100.636 74.4952 100.681 73.6549 100.681C71.3458 100.686 69.0462 100.353 66.8163 99.6886C65.6718 99.3576 64.5502 98.9365 63.4598 98.4286C63.4043 98.4007 63.3439 98.3784 63.2886 98.3505C63.2284 98.3226 63.1728 98.3003 63.1176 98.2725C63.0571 98.2446 63.0018 98.2167 62.9414 98.1833C62.4684 97.9547 62.0003 97.7037 61.5426 97.4417L61.3212 97.3135C60.7624 96.9901 60.214 96.6444 59.6806 96.2764C59.5245 96.1705 59.3636 96.059 59.2125 95.9419C59.1724 95.914 59.137 95.8862 59.0967 95.8583C58.7395 95.5962 58.3822 95.3231 58.035 95.0387C57.7986 94.8436 57.562 94.6484 57.3306 94.4477C56.9431 94.1243 56.5706 93.7787 56.2084 93.4218C56.0172 93.2434 55.831 93.0483 55.6499 92.8643C54.9364 92.1344 54.261 91.36 53.627 90.5449C53.4156 90.2773 53.2092 90.0097 53.0129 89.7309C52.9683 89.6758 52.9263 89.6181 52.8871 89.5581C49.6176 84.9869 47.651 79.4404 47.2381 73.6258C46.8252 67.8113 47.9849 61.9923 50.5691 56.9109C53.1532 51.8295 57.0449 47.716 61.7477 45.0951C66.4505 42.4741 71.7513 41.4645 76.9741 42.195C82.1969 42.9254 87.105 45.3628 91.0724 49.1963C95.0398 53.0299 97.8868 58.0858 99.2502 63.7193C100.614 69.3528 100.432 75.3085 98.7277 80.827C97.0236 86.3455 93.8747 91.1766 89.6824 94.7042Z" fill="#E2C044"/>
<path d="M338.699 210.176C337.359 205.91 335.195 202.019 332.358 198.774C329.521 195.53 326.079 193.01 322.272 191.391C318.466 189.771 314.387 189.092 310.319 189.399C306.251 189.706 302.292 190.992 298.719 193.168C295.146 195.344 292.045 198.358 289.631 201.998C287.217 205.639 285.549 209.819 284.743 214.248C283.937 218.676 284.013 223.246 284.965 227.639C285.917 232.031 287.722 236.141 290.255 239.681C290.506 240.032 290.768 240.383 291.035 240.724C291.055 240.746 291.07 240.768 291.09 240.79C291.746 241.628 292.443 242.424 293.178 243.177C293.37 243.372 293.571 243.573 293.772 243.762C294.155 244.141 294.547 244.504 294.955 244.849C295.751 245.544 296.58 246.19 297.441 246.784L297.471 246.801C298.029 247.185 298.598 247.542 299.177 247.882L299.413 248.016C299.957 248.328 300.51 248.624 301.079 248.897C301.195 248.953 301.32 249.009 301.436 249.064C301.446 249.07 301.451 249.07 301.461 249.075C302.61 249.605 303.791 250.046 304.994 250.397C307.353 251.093 309.784 251.446 312.225 251.445C313.116 251.445 313.996 251.4 314.867 251.306C316.856 251.102 318.82 250.663 320.724 249.995C320.73 249.995 320.734 249.99 320.739 249.99C321.943 249.565 323.118 249.049 324.257 248.445C324.262 248.44 324.272 248.44 324.277 248.434C324.534 248.301 324.78 248.156 325.032 248.016L325.153 247.949C325.354 247.832 325.555 247.715 325.757 247.592C326.26 247.286 326.753 246.962 327.241 246.617C327.377 246.528 327.508 246.433 327.644 246.332C328.086 246.009 328.524 245.663 328.947 245.312C329.023 245.251 329.103 245.189 329.179 245.123C333.893 241.158 337.353 235.641 339.064 229.363C340.774 223.085 340.646 216.369 338.699 210.176Z" fill="white"/>
<path d="M321.476 233.188C323.796 233.188 325.677 231.104 325.677 228.533C325.677 225.962 323.796 223.878 321.476 223.878C319.156 223.878 317.275 225.962 317.275 228.533C317.275 231.104 319.156 233.188 321.476 233.188Z" fill="#2F2E41"/>
<path d="M322.647 224.007C323.374 224.007 324.088 224.216 324.721 224.613C325.353 225.011 325.882 225.584 326.254 226.276C326.627 226.967 326.831 227.755 326.847 228.56C326.863 229.366 326.69 230.162 326.345 230.871C326.709 230.366 326.975 229.783 327.124 229.158C327.273 228.533 327.304 227.881 327.213 227.242C327.122 226.604 326.913 225.993 326.597 225.449C326.282 224.906 325.867 224.441 325.381 224.084C324.894 223.728 324.346 223.487 323.771 223.379C323.196 223.27 322.607 223.295 322.041 223.452C321.475 223.61 320.945 223.896 320.485 224.293C320.024 224.69 319.643 225.188 319.367 225.757C319.759 225.211 320.258 224.77 320.826 224.467C321.394 224.163 322.017 224.006 322.647 224.007H322.647Z" fill="#2F2E41"/>
<path d="M313.625 228.523C320.441 228.523 325.967 222.401 325.967 214.849C325.967 207.297 320.441 201.175 313.625 201.175C306.809 201.175 301.283 207.297 301.283 214.849C301.283 222.401 306.809 228.523 313.625 228.523Z" fill="#2F2E41"/>
<path d="M303.938 206.365C306.065 203.715 309.038 202.084 312.229 201.817C315.42 201.549 318.581 202.666 321.043 204.931C320.942 204.824 320.842 204.717 320.737 204.614C318.299 202.194 315.094 200.947 311.825 201.146C308.557 201.345 305.494 202.974 303.31 205.675C301.125 208.376 299.999 211.928 300.179 215.549C300.358 219.17 301.829 222.564 304.267 224.984C304.29 225.007 304.314 225.031 304.338 225.054C304.442 225.157 304.55 225.254 304.657 225.353C302.338 222.909 300.967 219.563 300.833 216.02C300.699 212.477 301.812 209.015 303.938 206.365Z" fill="#2F2E41"/>
<path d="M313.52 228.407C317.91 228.407 321.469 224.464 321.469 219.6C321.469 214.736 317.91 210.793 313.52 210.793C309.13 210.793 305.571 214.736 305.571 219.6C305.571 224.464 309.13 228.407 313.52 228.407Z" fill="#A0616A"/>
<path d="M327.744 242.547V245.502C327.256 245.847 326.763 246.171 326.26 246.477C326.059 246.6 325.857 246.717 325.656 246.834L325.535 246.901C325.284 247.04 325.037 247.185 324.78 247.319C324.775 247.325 324.765 247.325 324.76 247.33C323.621 247.934 322.446 248.45 321.243 248.875C321.238 248.875 321.233 248.88 321.228 248.88C319.323 249.548 317.359 249.987 315.37 250.191C314.5 250.285 313.619 250.33 312.728 250.33C310.287 250.331 307.856 249.978 305.497 249.282C304.294 248.931 303.114 248.49 301.965 247.96C301.955 247.955 301.949 247.955 301.939 247.949C301.824 247.893 301.698 247.838 301.582 247.782C301.013 247.509 300.46 247.213 299.916 246.901L299.68 246.767C299.101 246.427 298.532 246.07 297.974 245.686L297.944 245.669C297.084 245.075 296.254 244.429 295.458 243.734C295.05 243.389 294.658 243.026 294.275 242.647C294.074 242.457 293.873 242.257 293.682 242.062C292.946 241.309 292.249 240.513 291.593 239.675C291.68 239.095 291.808 238.522 291.976 237.964L291.981 237.958C292.011 237.863 292.046 237.77 292.086 237.679C292.114 237.599 292.146 237.521 292.182 237.445C293.083 235.577 294.713 235.115 296.736 235.014C297.878 234.959 299.141 235.02 300.475 235.003C301.18 234.998 301.909 234.97 302.639 234.897C307.243 234.434 306.408 231.424 306.614 229.801C306.821 228.229 308.099 229.589 308.184 229.679L308.189 229.684C310.795 231.035 313.678 231.595 316.543 231.307C317.036 231.24 317.529 231.201 318.022 231.184C319.32 231.167 319.039 231.58 318.591 231.92C318.374 232.078 318.147 232.22 317.912 232.344C317.912 232.344 317.705 233.738 317.494 235.823C317.293 237.819 320.745 238.755 321.031 238.828C321.037 238.832 321.044 238.834 321.051 238.833C322.312 238.471 323.639 238.51 324.881 238.945H324.886C325.596 239.234 326.229 239.715 326.728 240.344C327.227 240.973 327.576 241.73 327.744 242.547Z" fill="#E2C044"/>
<path d="M302.015 246.132C302.015 246.544 302.005 246.94 301.99 247.314C301.985 247.537 301.975 247.754 301.965 247.96C301.954 247.955 301.949 247.955 301.939 247.949C301.823 247.894 301.698 247.838 301.582 247.782C301.013 247.509 300.46 247.213 299.916 246.901L299.68 246.767C299.101 246.427 298.532 246.07 297.974 245.686C297.989 245.491 298.014 245.295 298.039 245.1C298.095 244.671 298.14 244.236 298.17 243.807C298.368 240.791 297.875 237.768 296.736 235.02V235.014C296.635 234.791 296.575 234.669 296.575 234.669C296.575 234.669 298.039 233.275 300.128 234.669C300.261 234.756 300.379 234.869 300.475 235.003C301.733 236.648 302.075 242.179 302.015 246.132Z" fill="#2F2E41"/>
<path d="M324.866 245.373C324.846 245.998 324.816 246.65 324.78 247.314V247.319C324.775 247.325 324.765 247.325 324.76 247.33C323.621 247.934 322.446 248.45 321.243 248.875C321.238 248.875 321.233 248.88 321.228 248.88L321.172 247.314L321.167 247.107L320.901 239.48C320.893 239.308 320.918 239.135 320.973 238.973C321.027 238.811 321.111 238.663 321.219 238.538C321.326 238.413 321.456 238.314 321.599 238.246C321.743 238.178 321.897 238.142 322.053 238.142H324.604C324.73 238.142 324.821 238.426 324.881 238.939V238.945C325.005 241.086 325 243.233 324.866 245.373Z" fill="#2F2E41"/>
<path d="M306.722 208.592V217.401H308.563L310.905 214.62L310.592 217.401H318.729L318.225 214.62L319.232 217.401H320.529V208.592H306.722Z" fill="#2F2E41"/>
<path d="M305.467 219.021C305.813 219.021 306.094 218.45 306.094 217.746C306.094 217.043 305.813 216.472 305.467 216.472C305.12 216.472 304.839 217.043 304.839 217.746C304.839 218.45 305.12 219.021 305.467 219.021Z" fill="#A0616A"/>
<path d="M321.574 219.021C321.921 219.021 322.202 218.45 322.202 217.746C322.202 217.043 321.921 216.472 321.574 216.472C321.228 216.472 320.947 217.043 320.947 217.746C320.947 218.45 321.228 219.021 321.574 219.021Z" fill="#A0616A"/>
<path d="M329.45 244.197C329.028 244.548 328.59 244.894 328.147 245.217C328.011 245.318 327.88 245.412 327.744 245.502C327.256 245.847 326.763 246.171 326.26 246.477C326.059 246.6 325.857 246.717 325.656 246.834V240.69C325.656 240.69 326.461 241.404 327.744 242.591C327.905 242.742 328.071 242.898 328.248 243.065C328.62 243.411 329.023 243.79 329.45 244.197Z" fill="#E2C044"/>
<path d="M338.699 210.176C337.359 205.91 335.195 202.019 332.358 198.774C329.521 195.53 326.079 193.01 322.272 191.391C318.466 189.771 314.387 189.092 310.319 189.399C306.251 189.706 302.292 190.992 298.719 193.168C295.146 195.344 292.045 198.358 289.631 201.998C287.217 205.639 285.549 209.819 284.743 214.248C283.937 218.676 284.013 223.246 284.965 227.639C285.917 232.031 287.722 236.141 290.255 239.681C290.506 240.032 290.768 240.383 291.035 240.724C291.055 240.746 291.07 240.768 291.09 240.79C291.746 241.628 292.443 242.424 293.178 243.177C293.37 243.372 293.571 243.573 293.772 243.762C294.155 244.141 294.547 244.504 294.955 244.849C295.751 245.544 296.58 246.19 297.441 246.784L297.471 246.801C298.029 247.185 298.598 247.542 299.177 247.882L299.413 248.016C299.957 248.328 300.51 248.624 301.079 248.897C301.195 248.953 301.32 249.009 301.436 249.064C301.446 249.07 301.451 249.07 301.461 249.075C302.61 249.605 303.791 250.046 304.994 250.397C307.353 251.093 309.784 251.446 312.225 251.445C313.116 251.445 313.996 251.4 314.867 251.306C316.856 251.102 318.82 250.663 320.724 249.995C320.73 249.995 320.734 249.99 320.739 249.99C321.943 249.565 323.118 249.049 324.257 248.445C324.262 248.44 324.272 248.44 324.277 248.434C324.534 248.301 324.78 248.156 325.032 248.016L325.153 247.949C325.354 247.832 325.555 247.715 325.757 247.592C326.26 247.286 326.753 246.962 327.241 246.617C327.377 246.528 327.508 246.433 327.644 246.332C328.086 246.009 328.524 245.663 328.947 245.312C329.023 245.251 329.103 245.189 329.179 245.123C333.893 241.158 337.353 235.641 339.064 229.363C340.774 223.085 340.646 216.369 338.699 210.176ZM328.252 243.768C328.086 243.913 327.915 244.052 327.744 244.18C327.578 244.32 327.412 244.454 327.241 244.576C327.095 244.693 326.949 244.805 326.798 244.911C326.672 245.005 326.547 245.095 326.421 245.184C326.003 245.474 325.581 245.753 325.153 246.02C325.107 246.048 325.062 246.076 325.017 246.104C324.826 246.221 324.634 246.332 324.443 246.444C324.418 246.461 324.388 246.472 324.363 246.489L324.332 246.505C324.091 246.645 323.844 246.778 323.598 246.907C322.646 247.414 321.666 247.854 320.664 248.222C320.533 248.273 320.402 248.323 320.272 248.367C318.469 249.003 316.61 249.421 314.726 249.616C313.901 249.7 313.065 249.745 312.225 249.745C309.916 249.75 307.616 249.416 305.386 248.752C304.242 248.421 303.12 248 302.03 247.492C301.914 247.442 301.798 247.386 301.688 247.336C301.627 247.308 301.572 247.28 301.511 247.247C301.038 247.018 300.571 246.767 300.113 246.505L299.891 246.377C299.333 246.054 298.784 245.708 298.251 245.34C298.055 245.206 297.858 245.067 297.667 244.922C297.063 244.481 296.474 244.007 295.901 243.511C295.513 243.188 295.141 242.842 294.778 242.485C294.587 242.307 294.401 242.112 294.22 241.928C293.506 241.198 292.831 240.423 292.197 239.608C291.986 239.341 291.779 239.073 291.583 238.794C291.538 238.739 291.496 238.682 291.457 238.622C288.188 234.05 286.221 228.504 285.808 222.689C285.395 216.875 286.555 211.056 289.139 205.974C291.723 200.893 295.615 196.78 300.318 194.159C305.021 191.538 310.321 190.528 315.544 191.259C320.767 191.989 325.675 194.426 329.642 198.26C333.61 202.093 336.457 207.149 337.82 212.783C339.184 218.416 339.002 224.372 337.298 229.891C335.594 235.409 332.445 240.24 328.252 243.768Z" fill="#3F3D56"/>
<path d="M337.121 207.741C337.816 207.461 338.448 207.016 338.971 206.437C339.495 205.858 339.897 205.159 340.151 204.389C340.404 203.618 340.501 202.796 340.437 201.98C340.372 201.163 340.147 200.372 339.776 199.663L351.531 184.585L342.264 183.249L332.523 197.772C331.488 198.54 330.744 199.702 330.431 201.038C330.118 202.374 330.258 203.79 330.825 205.019C331.392 206.248 332.346 207.203 333.506 207.705C334.666 208.207 335.953 208.219 337.121 207.741Z" fill="#FFB8B8"/>
<path d="M403.376 210.927C403.864 210.31 404.224 209.583 404.431 208.796C404.637 208.009 404.685 207.181 404.572 206.372C404.459 205.562 404.186 204.789 403.774 204.108C403.362 203.427 402.821 202.855 402.188 202.431L405.924 182.943L397.224 186.722L395.01 204.649C394.438 205.875 394.292 207.291 394.599 208.628C394.906 209.966 395.645 211.132 396.677 211.905C397.708 212.679 398.96 213.007 400.194 212.827C401.429 212.646 402.561 211.97 403.376 210.927Z" fill="#FFB8B8"/>
<path d="M361.275 312.495L355.106 312.494L352.171 286.129L361.276 286.13L361.275 312.495Z" fill="#FFB8B8"/>
<path d="M362.849 319.121L342.956 319.12V318.841C342.956 317.715 343.156 316.599 343.545 315.558C343.935 314.517 344.505 313.572 345.224 312.775C345.943 311.979 346.796 311.347 347.736 310.916C348.675 310.485 349.682 310.263 350.699 310.263L362.849 310.263L362.849 319.121Z" fill="#2F2E41"/>
<path d="M391.468 312.495L385.299 312.494L382.364 286.129L391.469 286.13L391.468 312.495Z" fill="#FFB8B8"/>
<path d="M393.041 319.121L373.149 319.12V318.841C373.149 317.715 373.349 316.599 373.738 315.558C374.127 314.517 374.698 313.572 375.417 312.775C376.136 311.979 376.989 311.347 377.929 310.916C378.868 310.485 379.875 310.263 380.892 310.263L393.042 310.263L393.041 319.121Z" fill="#2F2E41"/>
<path d="M361.918 298.728L353.185 298.341C352.589 298.312 352.027 298.025 351.621 297.542C351.214 297.059 350.996 296.418 351.012 295.757L353.472 206.34L353.633 206.276C368.939 200.141 381.601 200.605 392.344 207.692L392.464 207.771L393.938 294.86C393.943 295.193 393.889 295.525 393.778 295.835C393.667 296.145 393.501 296.427 393.29 296.665C393.079 296.903 392.828 297.092 392.55 297.221C392.272 297.35 391.974 297.416 391.673 297.416H384.309C383.785 297.415 383.277 297.213 382.872 296.844C382.467 296.475 382.189 295.961 382.087 295.391L372.056 238.852C372.021 238.656 371.925 238.481 371.784 238.358C371.643 238.234 371.467 238.17 371.287 238.177C371.108 238.185 370.936 238.263 370.804 238.398C370.672 238.532 370.587 238.715 370.566 238.913L364.256 296.523C364.187 297.131 363.921 297.69 363.507 298.096C363.093 298.501 362.56 298.727 362.007 298.73C361.978 298.73 361.948 298.729 361.918 298.728Z" fill="#2F2E41"/>
<path d="M370.414 127.923C377.24 127.923 382.774 121.793 382.774 114.23C382.774 106.667 377.24 100.536 370.414 100.536C363.588 100.536 358.055 106.667 358.055 114.23C358.055 121.793 363.588 127.923 370.414 127.923Z" fill="#FFB8B8"/>
<path d="M341.298 196.856C340.869 196.669 340.502 196.341 340.246 195.917L337.857 191.957C337.6 191.528 337.467 191.021 337.478 190.506C337.489 189.99 337.642 189.491 337.917 189.075L347.545 174.597L353.576 142.532C353.923 141.543 354.443 140.638 355.106 139.871C355.768 139.103 356.561 138.488 357.438 138.061C358.316 137.633 359.261 137.401 360.219 137.378C361.177 137.355 362.13 137.542 363.023 137.927C363.917 138.312 364.732 138.889 365.424 139.624C366.116 140.359 366.671 141.237 367.056 142.21C367.441 143.182 367.65 144.229 367.67 145.291C367.69 146.353 367.52 147.409 367.172 148.398L364.321 168.805C363.457 174.998 360.591 180.633 356.258 184.661L343.584 196.445C343.34 196.671 343.056 196.838 342.75 196.935C342.445 197.032 342.124 197.056 341.809 197.006C341.634 196.979 341.462 196.929 341.298 196.856Z" fill="#3F3D56"/>
<path d="M402.849 198.309C402.415 198.482 401.944 198.505 401.499 198.374L397.345 197.15C396.895 197.016 396.494 196.733 396.194 196.338C395.895 195.944 395.712 195.456 395.671 194.943L394.264 177.027L379.67 148.543C379.339 147.546 379.19 146.487 379.23 145.425C379.269 144.364 379.497 143.322 379.901 142.358C380.304 141.395 380.875 140.529 381.581 139.81C382.287 139.091 383.113 138.533 384.014 138.169C384.914 137.804 385.87 137.64 386.828 137.685C387.786 137.73 388.726 137.984 389.596 138.432C390.465 138.88 391.246 139.514 391.894 140.296C392.542 141.079 393.044 141.996 393.372 142.994L403.402 160.398C406.447 165.68 407.656 172.008 406.806 178.204L404.319 196.326C404.271 196.675 404.158 197.008 403.986 197.305C403.814 197.601 403.588 197.854 403.322 198.048C403.174 198.155 403.015 198.243 402.849 198.309Z" fill="#3F3D56"/>
<path d="M356.895 138.548C359.018 135.969 361.637 133.95 364.558 132.642C367.478 131.333 370.627 130.768 373.772 130.988C373.978 131.002 374.184 131.018 374.389 131.036C377.369 131.297 380.265 132.26 382.882 133.861C385.5 135.461 387.778 137.662 389.566 140.317C391.384 143.009 392.662 146.099 393.315 149.382C393.968 152.665 393.981 156.065 393.353 159.354C390.956 171.923 391.563 184.968 395.112 197.197L398.428 208.604C398.534 208.97 398.564 209.357 398.513 209.737C398.463 210.117 398.335 210.479 398.138 210.796C397.942 211.112 397.682 211.374 397.38 211.562C397.077 211.749 396.74 211.858 396.394 211.878L379.443 212.888L375.105 204.586V213.146L354.503 214.373C354.462 214.376 354.421 214.377 354.381 214.377C354.068 214.377 353.759 214.305 353.473 214.166C353.186 214.027 352.929 213.824 352.717 213.569C352.505 213.315 352.343 213.014 352.241 212.687C352.139 212.359 352.099 212.012 352.124 211.667L354.453 179.674L351.532 157.945C351.06 154.474 351.296 150.929 352.224 147.571C353.152 144.214 354.749 141.131 356.895 138.548Z" fill="#3F3D56"/>
<path d="M379.004 127.302C377.859 128.032 373.336 128.516 373.014 127.097L373.007 127.066C372.783 126.027 372.969 124.941 373.034 123.875C373.098 122.809 373.004 121.637 372.348 120.853C371.126 119.392 368.953 120.167 367.186 119.797C366.151 119.541 365.236 118.876 364.612 117.927C363.987 116.977 363.697 115.808 363.794 114.638C363.82 114.417 363.859 114.195 363.903 113.973C364.014 113.411 364.005 112.829 363.878 112.271C363.751 111.714 363.51 111.196 363.172 110.76C362.834 110.323 362.41 109.979 361.932 109.755C361.454 109.531 360.936 109.432 360.418 109.468C358.632 109.581 356.705 110.18 355.228 108.715C354.085 107.582 353.807 104.632 354.308 103.027C355.152 100.33 360.555 98.9174 362.914 98.1411C365.832 97.207 368.901 97.0051 371.898 97.55C374.895 98.0948 377.745 99.3728 380.24 101.291C381.73 102.455 383.122 103.917 383.757 105.81C384.392 107.704 384.086 110.092 382.654 111.342C383.764 112.644 384.546 114.247 384.921 115.989C385.296 117.732 385.251 119.553 384.791 121.27C384.083 123.795 380.707 126.216 379.004 127.302Z" fill="#2F2E41"/>
<path d="M415.497 320H308.312C308.178 320 308.05 319.941 307.956 319.837C307.861 319.732 307.808 319.59 307.808 319.442C307.808 319.295 307.861 319.153 307.956 319.048C308.05 318.944 308.178 318.885 308.312 318.885H415.497C415.63 318.885 415.758 318.944 415.853 319.048C415.947 319.153 416 319.295 416 319.442C416 319.59 415.947 319.732 415.853 319.837C415.758 319.941 415.63 320 415.497 320Z" fill="#CCCCCC"/>
</g>
<defs>
<clipPath id="clip0_1_351">
<rect width="416" height="320" fill="white"/>
</clipPath>
</defs>
</svg>
