<svg width="896" height="542" viewBox="0 0 896 542" fill="none" xmlns="http://www.w3.org/2000/svg">
<g clip-path="url(#clip0_1_7)">
<path d="M279.563 319.877V29.5977C279.563 14.313 291.712 1.87818 306.643 1.87818H868.92C883.852 1.87818 896 14.313 896 29.5977V319.877C896 335.161 883.852 347.597 868.92 347.597H306.643C291.712 347.597 279.563 335.161 279.563 319.877ZM893.254 29.5977C893.254 15.8409 882.36 4.6889 868.92 4.6889H306.643C293.204 4.6889 282.309 15.8413 282.309 29.5984V319.877C282.309 333.634 293.204 344.786 306.643 344.786H689.096C801.849 344.786 893.254 251.221 893.254 135.802L893.254 29.5977Z" fill="#2F2E41"/>
<path d="M477.656 54.6788H162.527C153.183 54.6788 145.584 62.4565 145.584 72.0214V190.52C145.584 200.085 153.183 207.863 162.527 207.863H477.656C487 207.863 494.598 200.085 494.598 190.52V72.0214C494.598 62.4565 487 54.6788 477.656 54.6788Z" fill="#2F2E41"/>
<path d="M477.656 54.6788H162.527C153.183 54.6788 145.584 62.4565 145.584 72.0214V190.52C145.584 200.085 153.183 207.863 162.527 207.863H477.656C487 207.863 494.598 200.085 494.598 190.52V72.0214C494.598 62.4565 487 54.6788 477.656 54.6788ZM492.816 190.52C492.816 199.082 486.02 206.039 477.656 206.039H162.527C154.162 206.039 147.366 199.082 147.366 190.52V72.0214C147.366 63.4595 154.162 56.5024 162.527 56.5024H477.656C486.02 56.5024 492.816 63.4595 492.816 72.0214V190.52Z" fill="#2F2E41"/>
<path d="M177.282 108.686H457.355C460.009 108.686 462.16 110.888 462.16 113.604C462.16 116.321 460.009 118.523 457.355 118.523H177.282C174.628 118.523 172.476 116.321 172.476 113.604C172.476 110.888 174.628 108.686 177.282 108.686Z" fill="#E2C044"/>
<path d="M177.282 141.009H278.877C281.531 141.009 283.682 143.211 283.682 145.928C283.682 148.644 281.531 150.846 278.877 150.846H177.282C174.628 150.846 172.476 148.644 172.476 145.928C172.476 143.211 174.628 141.009 177.282 141.009Z" fill="#E2C044"/>
<path d="M788.848 93.6582H596.641C593.613 93.6582 591.149 91.1363 591.149 88.0367C591.149 84.9371 593.613 82.4153 596.641 82.4153H788.848C791.876 82.4153 794.34 84.9371 794.34 88.0367C794.34 91.1363 791.876 93.6582 788.848 93.6582Z" fill="#2F2E41"/>
<path d="M825.286 215.57H557.457V214.165C645.643 228.009 735.009 226.87 825.286 214.165V215.57Z" fill="#2F2E41"/>
<path d="M788.848 165.332H596.641C593.613 165.332 591.149 162.81 591.149 159.71C591.149 156.61 593.613 154.089 596.641 154.089H788.848C791.876 154.089 794.34 156.61 794.34 159.71C794.34 162.81 791.876 165.332 788.848 165.332Z" fill="#2F2E41"/>
<path d="M826.659 233.84H558.83V235.245H826.659V233.84Z" fill="#2F2E41"/>
<path d="M788.848 128.361H596.641C593.613 128.361 591.149 125.839 591.149 122.739C591.149 119.64 593.613 117.118 596.641 117.118H788.848C791.876 117.118 794.34 119.64 794.34 122.739C794.34 125.839 791.876 128.361 788.848 128.361Z" fill="#2F2E41"/>
<path d="M826.659 253.515C734.211 247.078 644.43 246.053 558.83 253.515V252.11H826.659V253.515Z" fill="#2F2E41"/>
<path d="M457.032 230.646L445.733 225.167C450.367 231.787 454.361 242.127 456.499 250.354C460.118 242.69 465.954 233.313 471.729 227.711L459.788 230.856C467.146 193.94 494.823 167.438 526.517 167.438V164.627C493.412 164.627 464.545 192.239 457.032 230.646Z" fill="#3F3D56"/>
<path d="M509.037 286.894H437.645C434.617 286.894 432.154 284.372 432.154 281.272C432.154 278.173 434.617 275.651 437.645 275.651H509.037C512.065 275.651 514.528 278.173 514.528 281.272C514.528 284.372 512.065 286.894 509.037 286.894Z" fill="#E2C044"/>
<path d="M326.242 164.9C336.858 164.9 345.463 156.091 345.463 145.225C345.463 134.359 336.858 125.55 326.242 125.55C315.627 125.55 307.022 134.359 307.022 145.225C307.022 156.091 315.627 164.9 326.242 164.9Z" fill="#E2C044"/>
<path d="M336.24 133.704C335.324 133.156 333.925 133.44 333.422 134.46C331.137 139.093 328.853 143.726 326.568 148.359C324.725 145.404 322.368 142.823 319.633 140.66C318.752 139.964 317.325 140.523 316.815 141.417C316.193 142.506 316.671 143.603 317.554 144.301C320.743 146.823 323.203 150.213 324.859 153.954C325.488 155.376 327.758 155.286 328.415 153.954C331.269 148.165 334.124 142.377 336.978 136.588C337.479 135.572 337.241 134.303 336.24 133.704Z" fill="white"/>
<path d="M556.891 107.28C567.506 107.28 576.112 98.4714 576.112 87.6052C576.112 76.7389 567.506 67.9301 556.891 67.9301C546.276 67.9301 537.67 76.7389 537.67 87.6052C537.67 98.4714 546.276 107.28 556.891 107.28Z" fill="#E2C044"/>
<path d="M566.889 76.0843C565.973 75.5359 564.574 75.8203 564.071 76.8406C561.786 81.4734 559.502 86.1063 557.217 90.7393C555.374 87.7839 553.017 85.2034 550.281 83.0406C549.4 82.344 547.974 82.9033 547.464 83.7968C546.842 84.8858 547.319 85.9827 548.203 86.681C551.392 89.2031 553.852 92.593 555.508 96.3342C556.137 97.7565 558.407 97.6667 559.064 96.3342C561.918 90.5456 564.773 84.7571 567.627 78.9685C568.128 77.9526 567.89 76.6836 566.889 76.0843Z" fill="white"/>
<path d="M832.846 139.604C843.461 139.604 852.067 130.795 852.067 119.928C852.067 109.062 843.461 100.253 832.846 100.253C822.231 100.253 813.625 109.062 813.625 119.928C813.625 130.795 822.231 139.604 832.846 139.604Z" fill="#E2C044"/>
<path d="M842.843 108.408C841.928 107.859 840.529 108.144 840.026 109.164C837.741 113.797 835.457 118.43 833.172 123.063C831.329 120.107 828.971 117.527 826.236 115.364C825.355 114.667 823.929 115.227 823.419 116.12C822.797 117.209 823.274 118.306 824.158 119.004C827.347 121.526 829.806 124.916 831.462 128.658C832.092 130.08 834.362 129.99 835.019 128.658C837.873 122.869 840.728 117.08 843.582 111.292C844.083 110.276 843.845 109.007 842.843 108.408Z" fill="white"/>
<path d="M402.049 243.011H355.752C352.878 243.011 350.539 240.617 350.539 237.675C344.418 219.36 344.539 201.415 350.539 183.817C350.539 180.874 352.878 178.481 355.752 178.481H402.049C404.923 178.481 407.262 180.874 407.262 183.817V237.675C407.262 240.617 404.923 243.011 402.049 243.011Z" fill="#2F2E41"/>
<path d="M365.672 180.071C358.172 180.071 352.093 186.294 352.093 193.971V236.532C352.093 239.232 354.231 241.421 356.869 241.421H382.471C395.305 241.421 405.708 230.771 405.708 217.634V184.96C405.708 182.259 403.57 180.071 400.932 180.071H365.672Z" fill="#2F2E41"/>
<path d="M389.682 195.722H368.007C367.461 195.722 367.016 195.267 367.016 194.707C367.016 194.148 367.461 193.693 368.007 193.693H389.682C390.229 193.693 390.673 194.148 390.673 194.707C390.673 195.267 390.229 195.722 389.682 195.722Z" fill="#2F2E41"/>
<path d="M389.682 217.354H368.007C367.461 217.354 367.016 216.899 367.016 216.34C367.016 215.78 367.461 215.325 368.007 215.325H389.682C390.229 215.325 390.673 215.78 390.673 216.34C390.673 216.899 390.229 217.354 389.682 217.354Z" fill="#2F2E41"/>
<path d="M401.314 206.545H356.376C355.829 206.545 355.385 206.09 355.385 205.531C355.385 204.971 355.829 204.516 356.376 204.516H401.314C401.86 204.516 402.305 204.971 402.305 205.531C402.305 206.09 401.86 206.545 401.314 206.545Z" fill="#2F2E41"/>
<path d="M401.844 226.15H383.093C382.546 226.15 382.102 225.694 382.102 225.135C382.102 224.576 382.546 224.121 383.093 224.121H401.844C402.39 224.121 402.835 224.576 402.835 225.135C402.835 225.694 402.39 226.15 401.844 226.15Z" fill="#2F2E41"/>
<path d="M83.0841 95.6643C84.3035 89.9075 84.6618 94.1483 87.3142 88.9265C85.4936 95.6742 88.8531 93.4647 93.3158 98.7556C124.677 103.789 126.653 92.7941 138.26 93.1311L138.319 93.1306C140.873 93.0883 142.185 89.958 140.645 87.8719C136.844 82.7207 132.653 74.7723 136.619 69.7683C143.645 60.9033 137.453 42.7242 134.425 46.6544C134.425 31.4947 116.187 21.5532 109.112 24.0163C96.0399 28.5676 83.9339 34.7061 82.4677 48.441C82.2387 50.5857 81.9426 52.7179 81.5663 54.8406C80.8019 59.1515 77.6537 60.2962 78.7371 64.5299L82.1251 68.0576C83.7151 74.2705 83.2128 80.7929 81.0347 86.816C79.8306 90.1455 79.6637 93 83.0841 95.6643Z" fill="#2F2E41"/>
<path d="M115.734 75.3222C126.591 75.3222 135.392 66.313 135.392 55.1995C135.392 44.086 126.591 35.0768 115.734 35.0768C104.877 35.0768 96.0757 44.086 96.0757 55.1995C96.0757 66.313 104.877 75.3222 115.734 75.3222Z" fill="#A0616A"/>
<path d="M85.1112 513.936L95.2348 514.181L100.878 467.624L85.938 467.262L85.1112 513.936Z" fill="#A0616A"/>
<path d="M119.844 535.556C119.844 537.307 118.63 538.726 117.133 538.726H97.0387C97.0387 538.726 95.0612 530.589 86.9988 527.087L86.4424 538.726H76.0763L77.3323 520.012C77.3323 520.012 74.5593 510 80.3182 504.882C86.0771 499.764 81.4126 500.476 81.4126 500.476L83.678 488.894L99.3422 490.779L99.4574 508.961L107.059 527.009L118.209 532.647C119.201 533.148 119.844 534.292 119.844 535.556Z" fill="#2F2E41"/>
<path d="M96.245 471.697L104.286 477.998L135.632 443.773L123.766 434.474L96.245 471.697Z" fill="#A0616A"/>
<path d="M111.877 510.109C110.87 511.524 109.073 511.939 107.863 511.036L91.6225 498.923C91.6225 498.923 94.7056 491.154 90.2042 483.464L83.0586 492.535L74.6809 486.286L86.4625 471.918C86.4625 471.918 89.9816 462.155 97.5803 461.49C105.179 460.826 100.999 458.59 100.999 458.59L109.494 450.594L121.069 461.561L110.702 476.325L106.462 495.493L112.23 506.772C112.743 507.775 112.605 509.087 111.877 510.109Z" fill="#2F2E41"/>
<path d="M67.2766 275.885C67.8869 278.447 66.7627 290.369 67.3913 294.471C68.9897 304.902 83.5935 361.769 81.0743 377.981C71.8436 437.379 84.6101 475.485 84.6101 475.485H105.204L116.187 295.598L126.906 310.063L147.882 374.192L110.777 442.48L130.151 458.859L187.997 364.712L146.892 207.222L144.409 197.713L88.8702 196.127L91.9604 200.867L84.9305 207.977C84.9305 207.977 84.9212 207.996 84.8838 208.034C83.8009 209.582 59.7333 244.243 67.2766 275.885Z" fill="#2F2E41"/>
<path d="M84.8838 208.034C91.3162 210.385 134.784 207.958 146.892 207.222L144.409 197.713L88.8702 196.127L91.9604 200.867L84.9305 207.977C84.9305 207.977 84.9211 207.996 84.8838 208.034Z" fill="#A0616A"/>
<path d="M156.771 131.883L154.771 142.749L154.286 145.355L143.645 167.711L145.044 200.485C145.939 204.32 108.158 195.616 88.5309 204.608L73.2533 129.815L88.7444 95.3423L100.868 88.4478L102.889 80.1744H128.57C129.938 86.7311 128.455 89.9619 125.797 91.8212L132.231 109.384L156.771 131.883Z" fill="#E2C044"/>
<path d="M176.859 67.7928C176.541 70.6066 175.628 73.1137 174.368 75.0038L172.994 102.005L160.461 100.96L163.204 73.6823C162.399 71.5476 162.069 68.8936 162.387 66.0797C163.113 59.6515 166.942 54.8239 170.938 55.297C174.934 55.77 177.585 61.3646 176.859 67.7928Z" fill="#A0616A"/>
<path d="M126.908 96.1687L128.543 100.253C128.543 100.253 104.654 97.8036 105.164 110.571C105.6 121.465 150.565 164.638 152.714 165.646C159.078 168.631 166.474 164.613 167.625 157.545C177.75 130.805 179.848 106.697 175.222 84.7945H161.493L157.022 102.073L156.771 115.217L149.531 131.025L125.797 100.253L126.908 96.1687Z" fill="#E2C044"/>
<path d="M47.3165 246.253C48.1992 243.499 48.4013 240.77 48.0216 238.462L58.0488 212.778L45.97 208.252L37.099 234.792C35.4568 236.422 34.0398 238.743 33.1571 241.496C31.1406 247.785 32.6756 253.949 36.5856 255.262C40.4957 256.576 45.3 252.542 47.3165 246.253Z" fill="#A0616A"/>
<path d="M105.156 96.1827C105.156 96.1827 90.3253 90.4261 81.9059 97.4603C78.4337 100.361 63.0781 120.35 60.7128 147.26C60.5274 149.369 59.1237 151.184 58.333 153.156C53.4565 165.321 45.0612 170.924 41.4914 181.328C40.0964 185.394 42.6551 195.909 41.7736 199.416C37.1581 217.783 38.8237 228.255 38.8237 228.255L51.2876 232.502L58.0488 227.611L69.1539 186.1L105.156 96.1827Z" fill="#E2C044"/>
<path d="M216.706 64.5299H170.409C167.535 64.5299 165.197 62.1362 165.197 59.1938C159.075 40.8796 159.196 22.9342 165.197 5.3361C165.197 2.39372 167.535 0 170.409 0H216.706C219.58 0 221.919 2.39372 221.919 5.3361V59.1938C221.919 62.1362 219.58 64.5299 216.706 64.5299Z" fill="#2F2E41"/>
<path d="M180.329 1.58986C172.829 1.58986 166.75 7.81314 166.75 15.4899V58.0511C166.75 60.7511 168.888 62.94 171.526 62.94H197.128C209.962 62.94 220.366 52.2901 220.366 39.1529V6.47874C220.366 3.77869 218.227 1.58986 215.59 1.58986H180.329Z" fill="#2F2E41"/>
<path d="M204.34 17.2412H182.664C182.118 17.2412 181.673 16.786 181.673 16.2267C181.673 15.6673 182.118 15.2124 182.664 15.2124H204.34C204.886 15.2124 205.33 15.6673 205.33 16.2267C205.33 16.786 204.886 17.2412 204.34 17.2412Z" fill="#2F2E41"/>
<path d="M204.34 38.8733H182.664C182.118 38.8733 181.673 38.4181 181.673 37.8588C181.673 37.2994 182.118 36.8444 182.664 36.8444H204.34C204.886 36.8444 205.33 37.2994 205.33 37.8588C205.33 38.4181 204.886 38.8733 204.34 38.8733Z" fill="#2F2E41"/>
<path d="M215.971 28.0643H171.033C170.486 28.0643 170.042 27.6092 170.042 27.0498C170.042 26.4905 170.487 26.0355 171.033 26.0355H215.971C216.517 26.0355 216.962 26.4905 216.962 27.0498C216.962 27.6092 216.517 28.0643 215.971 28.0643Z" fill="#2F2E41"/>
<path d="M216.501 47.6689H197.75C197.203 47.6689 196.759 47.2137 196.759 46.6543C196.759 46.095 197.203 45.64 197.75 45.64H216.501C217.047 45.64 217.492 46.095 217.492 46.6543C217.492 47.2137 217.047 47.6689 216.501 47.6689Z" fill="#2F2E41"/>
<path d="M0 540.328C0 541.255 0.727684 542 1.63385 542H301.326C302.232 542 302.96 541.255 302.96 540.328C302.96 539.4 302.232 538.655 301.326 538.655H1.63385C0.727684 538.655 0 539.4 0 540.328Z" fill="#CCCCCC"/>
<path d="M121.063 31.3907H117.061C105.352 31.4042 85.3402 48.356 93.0839 60.2461C86.4714 78.3009 86.2305 87.6949 89.0374 92.6114C90.0707 94.4212 92.1223 95.2457 94.1651 95.0989C94.4374 95.0794 94.7117 95.0734 94.9878 95.0827C96.9669 95.1497 99.6216 104.673 101.464 105.405L106.354 103.883L114.375 95.6792L110.305 83.1659L102.429 76.8587L103.502 62.2517C98.2313 49.8507 103.966 49.2436 107.193 45.2434L107.52 58.0772L112.141 53.5113C115.906 53.6112 120.306 55.2819 123.23 51.8068C128.543 45.4444 134.051 53.1262 140.326 54.6788L142.272 53.1015C142.339 49.5235 141.822 46.0687 140.818 42.9752C140.346 41.5189 139.138 40.3189 139.087 38.8714C138.897 33.4391 128.867 28.17 121.063 31.3907Z" fill="#2F2E41"/>
</g>
<defs>
<clipPath id="clip0_1_7">
<rect width="896" height="542" fill="white"/>
</clipPath>
</defs>
</svg>
