<svg width="436" height="340" viewBox="0 0 436 340" fill="none" xmlns="http://www.w3.org/2000/svg">
<g clip-path="url(#clip0_1_448)">
<path d="M23.812 309.638C14.5211 320.948 12.5927 339.498 12.5927 339.498C12.5927 339.498 25.7278 339.711 35.0187 328.401C44.3096 317.091 46.238 298.541 46.238 298.541C46.238 298.541 33.1029 298.328 23.812 309.638Z" fill="#F2F2F2"/>
<path d="M28.1052 314.138C24.1476 330.628 12.7696 340 12.7696 340C12.7696 340 7.8081 322.636 11.7657 306.146C15.7232 289.656 27.1012 280.284 27.1012 280.284C27.1012 280.284 32.0628 297.648 28.1052 314.138Z" fill="#F2F2F2"/>
<path d="M125.084 70.1677C122.981 66.279 120.01 62.6809 119.822 57.8823C119.65 53.4811 121.948 49.1114 120.979 44.9007C120.234 41.6632 117.774 39.7097 115.371 38.6753C110.771 36.7232 105.847 36.9938 101.365 39.4451L101.608 39.2002C98.8727 37.809 95.6751 39.2451 93.5229 41.9051C91.3705 44.565 90.0913 48.2519 89.0989 51.9466C88.1062 55.6413 87.3372 59.4712 85.9581 62.935C84.5789 66.3988 82.4673 69.5489 79.6813 70.746C80.6139 73.4019 83.5296 74.3131 85.2396 72.483C85.6764 71.9765 86.0691 71.397 86.4092 70.7568C87.5496 68.777 88.6901 66.7972 89.8307 64.8174C91.0042 67.797 89.251 71.9095 90.6935 74.6679C91.4373 76.0905 92.7958 76.6307 94.0575 77.0182C103.919 80.0219 114.148 79.4803 123.826 75.4419C124.604 75.1146 125.462 74.664 125.785 73.6589C126.157 72.4985 125.636 71.1903 125.084 70.1677Z" fill="#2F2E41"/>
<path d="M153.044 85.3435C152.983 85.73 152.942 86.1228 152.924 86.5183L131.371 104.269L126.132 99.9638L120.547 110.402L129.302 119.311C130.01 120.03 130.862 120.403 131.73 120.373C132.598 120.343 133.436 119.911 134.118 119.143L156.343 94.1118C157.346 94.6419 158.439 94.7234 159.475 94.3456C160.511 93.9678 161.442 93.1485 162.145 91.9967C162.847 90.845 163.287 89.4154 163.406 87.898C163.525 86.3806 163.318 84.8474 162.812 83.5023C162.305 82.1572 161.524 81.064 160.572 80.368C159.62 79.6721 158.543 79.4063 157.482 79.6062C156.422 79.8061 155.429 80.4621 154.637 81.4869C153.844 82.5118 153.288 83.857 153.044 85.3435Z" fill="#FFB7B7"/>
<path d="M130.65 105.11L123.684 117.999C123.486 118.366 123.235 118.667 122.948 118.883C122.66 119.098 122.344 119.223 122.02 119.248C121.696 119.274 121.372 119.199 121.07 119.029C120.768 118.86 120.495 118.599 120.27 118.266L112.384 106.575C111.074 105.118 110.222 102.978 110.016 100.624C109.81 98.2714 110.266 95.8977 111.285 94.0245C112.304 92.1512 113.801 90.9315 115.449 90.6331C117.097 90.3347 118.76 90.9819 120.074 92.4327L129.965 100.328C130.248 100.554 130.494 100.865 130.685 101.239C130.877 101.613 131.01 102.041 131.075 102.495C131.14 102.949 131.135 103.417 131.062 103.869C130.989 104.32 130.848 104.743 130.65 105.11Z" fill="#E2C044"/>
<path d="M121.063 329.683L127.215 329.682L130.141 295.811L121.062 295.811L121.063 329.683Z" fill="#FFB7B7"/>
<path d="M119.494 326.816L131.608 326.815H131.609C133.656 326.815 135.619 327.977 137.067 330.043C138.515 332.11 139.328 334.913 139.328 337.836V338.194L119.494 338.195L119.494 326.816Z" fill="#2F2E41"/>
<path d="M78.9173 329.683L85.0686 329.682L87.9947 295.811L78.9163 295.811L78.9173 329.683Z" fill="#FFB7B7"/>
<path d="M77.3481 326.816L89.462 326.815H89.4625C91.51 326.815 93.4735 327.977 94.9212 330.043C96.369 332.11 97.1824 334.913 97.1825 337.836V338.194L77.3485 338.195L77.3481 326.816Z" fill="#2F2E41"/>
<path d="M117.369 65.3794C118.01 57.0477 113.798 49.552 107.962 48.6374C102.126 47.7229 96.8752 53.7356 96.2345 62.0674C95.5939 70.3991 99.8057 77.8947 105.642 78.8093C111.478 79.7239 116.728 73.7112 117.369 65.3794Z" fill="#FFB7B7"/>
<path d="M113.022 86.4747L119.285 90.904C119.285 90.904 126.282 108.265 122.268 124.739C120.32 132.738 125.807 158.235 125.807 158.235C125.807 158.235 134.31 273.727 134.337 309.372C123.774 311.69 113.739 314.555 113.237 307.392C112.735 300.23 107.243 215.538 107.243 215.538C107.243 215.538 99.6902 309.541 93.6694 310.974C87.6485 312.406 75.6068 310.258 75.6068 310.258C75.6068 310.258 85.1667 172.561 91.6893 163.965L92.6928 156.802L92.6659 92.5064L100.181 87.3866L113.022 86.4747Z" fill="#2F2E41"/>
<path d="M90.618 184.083C91.311 183.548 91.9134 182.802 92.3827 181.899C92.852 180.995 93.1768 179.955 93.3343 178.853C93.4917 177.751 93.4779 176.613 93.2939 175.519C93.1099 174.425 92.7602 173.402 92.2693 172.522L99.5529 103.213L90.037 102.561L84.3593 171.583C83.3784 172.858 82.7593 174.603 82.6193 176.486C82.4793 178.37 82.828 180.261 83.5995 181.802C84.371 183.343 85.5115 184.426 86.8051 184.846C88.0986 185.267 89.4553 184.995 90.618 184.083Z" fill="#FFB7B7"/>
<path d="M99.3461 120.579L87.9655 119.553C87.6417 119.524 87.3261 119.396 87.0402 119.177C86.7543 118.958 86.5048 118.653 86.3088 118.284C86.1127 117.915 85.9747 117.49 85.9041 117.038C85.8335 116.586 85.832 116.117 85.8996 115.664L88.2709 99.7913C88.3846 97.4266 89.1506 95.2229 90.4008 93.6633C91.651 92.1038 93.2834 91.3157 94.9401 91.472C96.5967 91.6283 98.1423 92.7161 99.2379 94.497C100.334 96.2778 100.89 98.6063 100.784 100.972L101.738 117.092C101.765 117.554 101.723 118.018 101.613 118.454C101.503 118.89 101.329 119.287 101.102 119.618C100.875 119.948 100.6 120.206 100.297 120.372C99.9944 120.538 99.6699 120.608 99.3461 120.579Z" fill="#E2C044"/>
<path d="M413.876 54.8562H162.208C160.371 54.8562 158.609 55.8981 157.31 57.7527C156.011 59.6072 155.281 62.1225 155.281 64.7453V264.932C155.281 267.555 156.011 270.07 157.31 271.925C158.609 273.779 160.371 274.821 162.208 274.821H413.876C415.713 274.821 417.475 273.779 418.774 271.925C420.073 270.07 420.803 267.555 420.803 264.932V64.7453C420.803 62.1225 420.073 59.6072 418.774 57.7527C417.475 55.8981 415.713 54.8562 413.876 54.8562Z" fill="#2F2E41"/>
<path d="M411.516 72.3329H164.568V271.205H411.516V72.3329Z" fill="white"/>
<path d="M287.831 66.9091C289.23 66.9091 290.364 65.2902 290.364 63.2932C290.364 61.2962 289.23 59.6774 287.831 59.6774C286.432 59.6774 285.298 61.2962 285.298 63.2932C285.298 65.2902 286.432 66.9091 287.831 66.9091Z" fill="white"/>
<path d="M340.893 271.206H164.568V72.3328L340.893 271.206Z" fill="#F2F2F2"/>
<path d="M427.737 267.589H403.636V265.111C403.636 264.98 403.6 264.855 403.536 264.763C403.471 264.671 403.383 264.619 403.292 264.619H395.029C394.984 264.619 394.939 264.632 394.897 264.656C394.855 264.681 394.817 264.717 394.786 264.763C394.754 264.809 394.728 264.863 394.711 264.922C394.694 264.982 394.685 265.046 394.685 265.11V267.589H389.52V265.111C389.52 265.046 389.511 264.982 389.494 264.922C389.477 264.863 389.451 264.809 389.42 264.763C389.388 264.717 389.35 264.681 389.308 264.656C389.266 264.632 389.221 264.619 389.176 264.619H380.913C380.868 264.619 380.823 264.632 380.781 264.656C380.739 264.681 380.702 264.717 380.67 264.763C380.638 264.809 380.612 264.863 380.595 264.922C380.578 264.982 380.569 265.046 380.569 265.111V267.589H375.404V265.111C375.404 265.046 375.395 264.982 375.378 264.922C375.361 264.863 375.335 264.809 375.303 264.763C375.272 264.717 375.234 264.681 375.192 264.656C375.15 264.632 375.105 264.619 375.06 264.619H366.797C366.752 264.619 366.707 264.632 366.665 264.656C366.623 264.681 366.585 264.717 366.554 264.763C366.522 264.809 366.496 264.863 366.479 264.922C366.462 264.982 366.453 265.046 366.453 265.111V267.589H361.288V265.111C361.288 265.046 361.279 264.982 361.262 264.922C361.245 264.863 361.219 264.809 361.187 264.763C361.155 264.717 361.118 264.681 361.076 264.656C361.034 264.632 360.989 264.619 360.944 264.619H352.681C352.636 264.619 352.591 264.632 352.549 264.656C352.507 264.681 352.469 264.717 352.437 264.763C352.406 264.809 352.38 264.863 352.363 264.922C352.346 264.982 352.337 265.046 352.337 265.11V267.589H347.172V265.111C347.172 265.046 347.163 264.982 347.146 264.922C347.129 264.863 347.103 264.809 347.071 264.763C347.039 264.717 347.001 264.681 346.96 264.656C346.918 264.632 346.873 264.619 346.828 264.619H338.565C338.52 264.619 338.475 264.632 338.433 264.656C338.391 264.681 338.353 264.717 338.321 264.763C338.289 264.809 338.264 264.863 338.247 264.922C338.23 264.982 338.221 265.046 338.221 265.111V267.589H333.056V265.111C333.056 265.046 333.047 264.982 333.03 264.922C333.013 264.863 332.987 264.809 332.955 264.763C332.923 264.717 332.885 264.681 332.844 264.656C332.802 264.632 332.757 264.619 332.712 264.619H324.449C324.404 264.619 324.359 264.632 324.317 264.656C324.275 264.681 324.237 264.717 324.205 264.763C324.173 264.809 324.148 264.863 324.131 264.922C324.113 264.982 324.105 265.046 324.105 265.111V267.589H318.94V265.111C318.94 265.046 318.931 264.982 318.914 264.922C318.897 264.863 318.871 264.809 318.839 264.763C318.807 264.717 318.769 264.681 318.728 264.656C318.686 264.632 318.641 264.619 318.596 264.619H253.869C253.823 264.619 253.779 264.632 253.737 264.656C253.695 264.681 253.657 264.717 253.625 264.763C253.593 264.809 253.568 264.863 253.551 264.922C253.533 264.982 253.524 265.046 253.524 265.111V267.589H248.36V265.111C248.36 265.046 248.351 264.982 248.334 264.922C248.316 264.863 248.291 264.809 248.259 264.763C248.227 264.717 248.189 264.681 248.147 264.656C248.106 264.632 248.061 264.619 248.016 264.619H239.753C239.707 264.619 239.663 264.632 239.621 264.656C239.579 264.681 239.541 264.717 239.509 264.763C239.477 264.809 239.452 264.863 239.435 264.922C239.417 264.982 239.408 265.046 239.408 265.111V267.589H234.244V265.111C234.244 265.046 234.235 264.982 234.218 264.922C234.2 264.863 234.175 264.809 234.143 264.763C234.111 264.717 234.073 264.681 234.031 264.656C233.99 264.632 233.945 264.619 233.9 264.619H225.637C225.591 264.619 225.547 264.632 225.505 264.656C225.463 264.681 225.425 264.717 225.393 264.763C225.361 264.809 225.336 264.863 225.318 264.922C225.301 264.982 225.292 265.046 225.292 265.111V267.589H220.128V265.111C220.128 265.046 220.119 264.982 220.102 264.922C220.084 264.863 220.059 264.809 220.027 264.763C219.995 264.717 219.957 264.681 219.915 264.656C219.874 264.632 219.829 264.619 219.784 264.619H211.521C211.475 264.619 211.431 264.632 211.389 264.656C211.347 264.681 211.309 264.717 211.277 264.763C211.245 264.809 211.22 264.863 211.202 264.922C211.185 264.982 211.176 265.046 211.176 265.111V267.589H206.012V265.111C206.012 265.046 206.003 264.982 205.986 264.922C205.968 264.863 205.943 264.809 205.911 264.763C205.879 264.717 205.841 264.681 205.799 264.656C205.758 264.632 205.713 264.619 205.668 264.619H197.405C197.359 264.619 197.315 264.632 197.273 264.656C197.231 264.681 197.193 264.717 197.161 264.763C197.129 264.809 197.104 264.863 197.086 264.922C197.069 264.982 197.06 265.046 197.06 265.111V267.589H191.896V265.111C191.896 265.046 191.887 264.982 191.87 264.922C191.852 264.863 191.827 264.809 191.795 264.763C191.763 264.717 191.725 264.681 191.683 264.656C191.641 264.632 191.597 264.619 191.552 264.619H183.288C183.197 264.619 183.11 264.671 183.045 264.763C182.98 264.855 182.944 264.98 182.944 265.11V267.589H177.78V265.111C177.78 265.046 177.771 264.982 177.754 264.922C177.736 264.863 177.711 264.809 177.679 264.763C177.647 264.717 177.609 264.681 177.567 264.656C177.525 264.632 177.481 264.619 177.435 264.619H169.172C169.081 264.619 168.994 264.671 168.929 264.763C168.864 264.855 168.828 264.98 168.828 265.111V267.589H152.991C151.905 267.589 150.831 267.895 149.828 268.487C148.826 269.08 147.915 269.949 147.148 271.045C146.38 272.14 145.772 273.44 145.357 274.872C144.941 276.303 144.728 277.837 144.728 279.386V284.72C144.728 287.849 145.598 290.849 147.148 293.061C148.697 295.274 150.799 296.516 152.991 296.516H427.737C429.928 296.516 432.03 295.274 433.58 293.061C435.129 290.849 436 287.849 436 284.72V279.386C436 277.837 435.786 276.303 435.371 274.872C434.956 273.44 434.347 272.14 433.58 271.045C432.813 269.949 431.902 269.08 430.899 268.487C429.897 267.895 428.822 267.589 427.737 267.589Z" fill="#2F2E41"/>
<path d="M292.792 245.128C292.71 245.408 292.617 245.681 292.514 245.947C291.976 247.367 291.214 248.589 290.29 249.519C289.196 250.619 287.911 251.268 286.575 251.397C285.24 251.525 283.906 251.127 282.718 250.247C281.53 249.367 280.535 248.038 279.84 246.405C279.145 244.772 278.777 242.899 278.777 240.988V239.304H279.778C283.667 242.893 288.165 244.906 292.792 245.128Z" fill="#3F3D56"/>
<path d="M307.074 239.797V240.988C307.074 243.306 306.534 245.558 305.538 247.389C304.542 249.22 303.147 250.525 301.573 251.097C300 251.67 298.337 251.478 296.849 250.551C295.361 249.624 294.131 248.016 293.354 245.981C293.247 245.708 293.15 245.428 293.064 245.141C293.278 245.149 293.489 245.153 293.702 245.153C298.42 245.161 303.048 243.308 307.074 239.797Z" fill="#3F3D56"/>
<path d="M316.918 113.883C316.699 113.837 316.477 113.808 316.254 113.787C318.782 122.102 318.957 131.491 316.743 139.987C316.965 139.949 317.185 139.899 317.404 139.84C319.547 139.248 321.474 137.588 322.84 135.158C324.207 132.727 324.925 129.683 324.866 126.568C324.808 123.452 323.977 120.467 322.522 118.145C321.066 115.822 319.081 114.312 316.918 113.883Z" fill="#3F3D56"/>
<path d="M271.151 113.787C270.928 113.808 270.706 113.837 270.486 113.883C268.324 114.312 266.339 115.822 264.883 118.145C263.428 120.468 262.597 123.452 262.538 126.568C262.48 129.683 263.198 132.727 264.565 135.158C265.931 137.588 267.857 139.248 270.001 139.84C270.22 139.899 270.44 139.949 270.662 139.987C268.448 131.491 268.624 122.102 271.151 113.787Z" fill="#3F3D56"/>
<path d="M316.918 113.883C314.507 105.662 310.042 99.0131 304.389 95.2292C298.737 91.4452 292.301 90.7959 286.332 93.4074C280.363 96.019 275.287 101.705 272.09 109.361C268.893 117.016 267.804 126.095 269.033 134.833C270.263 143.571 273.724 151.345 278.744 156.644C283.764 161.943 289.985 164.388 296.197 163.506C302.41 162.623 308.17 158.476 312.361 151.869C316.551 145.261 318.871 136.667 318.87 127.754C318.869 122.991 318.206 118.277 316.918 113.883ZM316.743 139.987C314.602 148.202 310.385 154.975 304.922 158.974C299.458 162.973 293.144 163.908 287.222 161.595C281.3 159.281 276.199 153.887 272.923 146.473C269.647 139.06 268.434 130.165 269.521 121.538C270.609 112.912 273.919 105.179 278.8 99.8617C283.681 94.5443 289.779 92.0277 295.894 92.8072C302.01 93.5866 307.699 97.6057 311.843 104.073C315.987 110.541 318.285 118.989 318.285 127.754C318.284 131.93 317.762 136.072 316.743 139.987Z" fill="#3F3D56"/>
<path d="M306.579 119.607H280.826C279.468 119.607 278.165 120.377 277.204 121.748C276.244 123.119 275.704 124.979 275.704 126.918C275.704 128.857 276.244 130.717 277.204 132.088C278.165 133.459 279.468 134.23 280.826 134.23H306.579C307.937 134.23 309.24 133.459 310.2 132.088C311.161 130.717 311.701 128.857 311.701 126.918C311.701 124.979 311.161 123.119 310.2 121.748C309.24 120.377 307.937 119.607 306.579 119.607Z" fill="#3F3D56"/>
<path d="M316.743 190.189C316.649 189.942 316.553 189.7 316.453 189.462C316.45 189.453 316.447 189.449 316.444 189.441C314.142 183.813 310.854 179.138 306.903 175.872C302.952 172.607 298.475 170.864 293.91 170.815C289.345 170.766 284.849 172.412 280.865 175.592C276.88 178.772 273.543 183.377 271.181 188.954C268.819 194.531 267.514 200.889 267.393 207.404C267.272 213.919 268.339 220.366 270.491 226.114C272.642 231.862 275.804 236.713 279.665 240.19C283.526 243.667 287.954 245.651 292.514 245.947C292.792 245.968 293.073 245.981 293.354 245.981C293.471 245.989 293.585 245.989 293.703 245.989C298.407 245.999 303.027 244.196 307.074 240.771C311.469 237.057 315.02 231.609 317.299 225.083C317.302 225.074 317.305 225.07 317.308 225.062C317.396 224.811 317.48 224.556 317.565 224.297C319.325 218.923 320.168 213.031 320.026 207.102C319.883 201.173 318.758 195.377 316.743 190.189ZM316.995 224.067C316.91 224.326 316.822 224.581 316.731 224.832C314.554 231.01 311.209 236.194 307.074 239.797C303.048 243.308 298.42 245.161 293.703 245.153C293.489 245.153 293.278 245.149 293.064 245.141C292.974 245.141 292.883 245.137 292.792 245.128C288.324 244.905 283.973 243.025 280.168 239.674C276.363 236.322 273.235 231.613 271.092 226.012C268.948 220.41 267.863 214.109 267.943 207.727C268.024 201.345 269.266 195.103 271.549 189.615C273.832 184.126 277.077 179.581 280.963 176.426C284.85 173.272 289.245 171.616 293.716 171.622C298.187 171.628 302.58 173.296 306.463 176.461C310.345 179.626 313.584 184.18 315.859 189.675C315.862 189.683 315.865 189.687 315.868 189.696C315.97 189.934 316.07 190.176 316.163 190.418C318.172 195.526 319.295 201.245 319.44 207.099C319.584 212.952 318.746 218.771 316.995 224.067Z" fill="#3F3D56"/>
<path d="M313.945 191.3C313.432 190.778 312.819 190.497 312.189 190.494H300.679C299.877 190.494 299.108 190.948 298.542 191.758C297.975 192.567 297.656 193.665 297.656 194.809C297.656 195.954 297.975 197.052 298.542 197.861C299.108 198.671 299.877 199.125 300.679 199.125H312.189C312.395 199.126 312.6 199.097 312.801 199.038C313.001 198.976 313.197 198.888 313.386 198.774C313.878 198.472 314.305 197.988 314.623 197.372C314.941 196.756 315.138 196.031 315.195 195.27C315.252 194.51 315.166 193.741 314.947 193.044C314.727 192.346 314.381 191.744 313.945 191.3Z" fill="#3F3D56"/>
<path d="M301.446 197C302.293 197 302.98 196.019 302.98 194.809C302.98 193.599 302.293 192.618 301.446 192.618C300.598 192.618 299.911 193.599 299.911 194.809C299.911 196.019 300.598 197 301.446 197Z" fill="#F1F1F1"/>
<path d="M306.434 197C307.281 197 307.968 196.019 307.968 194.809C307.968 193.599 307.281 192.618 306.434 192.618C305.586 192.618 304.899 193.599 304.899 194.809C304.899 196.019 305.586 197 306.434 197Z" fill="#F1F1F1"/>
<path d="M311.422 197C312.269 197 312.956 196.019 312.956 194.809C312.956 193.599 312.269 192.618 311.422 192.618C310.574 192.618 309.887 193.599 309.887 194.809C309.887 196.019 310.574 197 311.422 197Z" fill="#E2C044"/>
<path d="M369.227 122.595C365.236 126.012 358.125 130.294 350.858 125.894L346.16 123.049L355.574 107.984C348.062 96.1604 343.906 80.7644 343.918 64.8017C343.929 48.839 348.107 33.4553 355.636 21.6532C363.164 9.85115 373.503 2.47786 384.635 0.972552C395.767 -0.532761 406.892 3.93794 415.839 13.512C424.786 23.0861 430.912 37.0764 433.023 52.7521C435.134 68.4279 433.077 84.6639 427.254 98.2912C421.431 111.918 412.26 121.959 401.53 126.453C390.801 130.946 379.284 129.571 369.227 122.595Z" fill="#2F2E41"/>
<path d="M369.252 123.407C365.416 126.621 358.11 131.064 350.662 126.553L345.32 123.318L354.9 107.986C348.939 98.414 345.096 86.5377 343.854 73.853C342.611 61.1684 344.026 48.2426 347.92 36.7035C351.813 25.1644 358.011 15.5281 365.733 9.00811C373.456 2.48811 382.357 -0.623988 391.315 0.0637382C400.274 0.751464 408.89 5.20826 416.078 12.8729C423.266 20.5374 428.704 31.0671 431.709 43.1357C434.713 55.2043 435.149 68.2721 432.961 80.6934C430.773 93.1148 426.059 104.334 419.414 112.939C412.74 121.633 404.396 127.275 395.456 129.141C386.516 131.007 377.39 129.009 369.252 123.407ZM421.804 22.2316C417.882 16.0557 413.147 11.0432 407.868 7.48032C402.59 3.91745 396.871 1.87401 391.039 1.46671C385.207 1.05942 379.376 2.29624 373.879 5.10655C368.382 7.91685 363.327 12.2456 359.002 17.8455C354.677 23.4454 351.167 30.2068 348.673 37.7436C346.178 45.2803 344.748 53.4447 344.464 61.7705C344.181 70.0963 345.048 78.4204 347.018 86.2673C348.988 94.1142 352.022 101.33 355.945 107.503L356.249 107.981L347.001 122.78L351.054 125.234C358.247 129.591 365.366 125.065 368.969 121.98L369.202 121.781L369.446 121.95C378.734 128.393 389.304 130.019 399.34 126.549C409.376 123.078 418.253 114.728 424.446 102.932C430.64 91.1362 433.763 76.63 433.281 61.9041C432.799 47.1782 428.741 33.1513 421.804 22.2316Z" fill="#E2C044"/>
<path opacity="0.1" d="M426.828 64.4674C426.827 49.7071 422.955 35.4821 415.975 24.5936C408.994 13.7052 399.411 6.94247 389.113 5.63727C390.318 5.48657 391.537 5.40503 392.769 5.40503C403.737 5.41447 414.254 11.6413 422.007 22.7166C429.76 33.7919 434.116 48.8092 434.116 64.4674C434.116 80.1255 429.76 95.1429 422.007 106.218C414.254 117.293 403.737 123.52 392.769 123.53C391.539 123.53 390.322 123.447 389.119 123.297C399.416 121.99 408.998 115.226 415.977 104.338C422.956 93.45 426.827 79.2262 426.828 64.4674Z" fill="black"/>
<path d="M394.713 52.6896H365.15V56.6088H394.713V52.6896Z" fill="#E2C044"/>
<path d="M416.675 66.2473H365.15V70.1665H416.675V66.2473Z" fill="#E2C044"/>
<path d="M416.624 79.8051H365.15V83.7242H416.624V79.8051Z" fill="#E2C044"/>
<path d="M191.664 338.943H0.501737C0.368668 338.943 0.241049 338.867 0.146955 338.733C0.0528611 338.599 0 338.416 0 338.226C0 338.036 0.0528611 337.854 0.146955 337.72C0.241049 337.586 0.368668 337.51 0.501737 337.51H191.664C191.797 337.51 191.924 337.586 192.019 337.72C192.113 337.854 192.165 338.036 192.165 338.226C192.165 338.416 192.113 338.599 192.019 338.733C191.924 338.867 191.797 338.943 191.664 338.943Z" fill="#CBCBCB"/>
<path d="M117.944 53.8579C117.529 51.1752 116.184 48.9524 114.634 47.3246C112.079 44.6411 108.945 43.322 105.779 43.5969C102.612 43.8717 99.614 45.7232 97.3053 48.8289C96.0153 50.4555 95.0853 52.5835 94.629 54.9526C94.4114 56.1367 94.3997 57.3789 94.5952 58.5709C94.7906 59.7628 95.1872 60.8686 95.7503 61.7918L95.9627 61.9817C95.7702 60.8156 96.4047 59.6504 97.1627 59.1359C97.951 58.7228 98.774 58.4594 99.6104 58.3524C100.876 58.011 102.075 57.2857 103.128 56.2257C104.18 55.1657 105.06 53.7955 105.71 52.2078C106.191 54.1619 106.96 55.9462 107.964 57.4407C108.969 58.9353 110.186 60.1054 111.534 60.8724C112.939 61.6568 116.798 62.7355 118.135 61.7396C119.842 60.4694 118.358 56.5407 117.944 53.8579Z" fill="#2F2E41"/>
</g>
<defs>
<clipPath id="clip0_1_448">
<rect width="436" height="340" fill="white"/>
</clipPath>
</defs>
</svg>
